<svg width="12" height="12" viewBox="0 0 12 12" fill="none" xmlns="http://www.w3.org/2000/svg">
<g clip-path="url(#clip0_131_4063)">
<path d="M11.1961 6.75385C11.0846 6.72587 10.9731 6.75385 10.8755 6.8238C10.513 7.13159 10.0948 7.38341 9.63471 7.55129C9.20253 7.71918 8.72852 7.80312 8.22663 7.80312C7.09738 7.80312 6.06571 7.34144 5.32682 6.59996C4.58793 5.85848 4.12786 4.8232 4.12786 3.69C4.12786 3.21433 4.21151 2.75266 4.35092 2.33295C4.50428 1.88526 4.72734 1.47955 5.02011 1.12979C5.14558 0.9759 5.1177 0.752056 4.96434 0.626144C4.86675 0.556193 4.75522 0.528213 4.64369 0.556193C3.45867 0.877968 2.42701 1.59147 1.68812 2.5428C0.977105 3.48015 0.544922 4.64133 0.544922 5.91444C0.544922 7.43937 1.15834 8.8244 2.16212 9.8317C3.1659 10.839 4.5461 11.4546 6.06571 11.4546C7.34832 11.4546 8.53334 11.0069 9.48135 10.2654C10.4433 9.50992 11.1404 8.43268 11.4331 7.20154C11.5029 6.99169 11.3913 6.79582 11.1961 6.75385ZM9.06311 9.67781C8.25451 10.3214 7.22285 10.7131 6.0936 10.7131C4.76916 10.7131 3.5702 10.1675 2.70584 9.30007C1.84147 8.43268 1.29776 7.22952 1.29776 5.90045C1.29776 4.79523 1.66023 3.78793 2.2876 2.9765C2.71978 2.41689 3.26349 1.95521 3.89086 1.63344C3.82115 1.78733 3.75144 1.94122 3.69568 2.10911C3.51444 2.61275 3.43079 3.14438 3.43079 3.70399C3.43079 5.03306 3.9745 6.25021 4.83887 7.1176C5.70324 7.98499 6.91614 8.53061 8.24057 8.53061C8.82611 8.53061 9.38377 8.43268 9.8996 8.23681C10.0808 8.16686 10.2621 8.09691 10.4294 8.01297C10.0948 8.65652 9.63471 9.23012 9.06311 9.67781Z" fill="white"/>
</g>
<defs>
<clipPath id="clip0_131_4063">
<rect width="12" height="12" fill="white"/>
</clipPath>
</defs>
</svg>
